<svg width="395" height="176" viewBox="0,0,395,176" xmlns="http://www.w3.org/2000/svg" xmlns:inkscape="http://www.inkscape.org/namespaces/inkscape" xmlns:sodipodi="http://sodipodi.sourceforge.net/DTD/sodipodi-0.dtd" xmlns:xlink="http://www.w3.org/1999/xlink" xmlns:ns1="http://www.inkscape.org/namespaces/inkscape" xmlns:sketch="http://www.bohemiancoding.com/sketch/ns"><defs></defs><g transform="matrix(0.5,0,0,0.5,45.25,35.5)"><svg width="464.625" height="196" style="overflow: visible;"><defs><linearGradient x1="0" y1="98" x2="464.63" y2="98" gradientUnits="userSpaceOnUse" id="linearGradientSjir9dap94h"><stop offset="0%" stop-color="#e9e9e9"></stop><stop offset="100%" stop-color="#e9e9e9"></stop></linearGradient></defs><g></g><path fill="none" d="M-50,165 C209.1640625,164 249.1640625,164 508.328125,165" style=""></path><text fill="url('#linearGradientSjir9dap94h')" dy="127.4" x="265.5" style="font-size: 100px; font-weight: bold; font-family: &quot;Open Sans&quot;; text-anchor: middle;">payment</text></svg></g><g transform="matrix(0.5,0,0,0.5,98,78.5)"><svg width="680" height="196" style="overflow: visible;"><defs><linearGradient x1="0" y1="98" x2="680" y2="98" gradientUnits="userSpaceOnUse" id="linearGradientSjir9dap94p"><stop offset="0%" stop-color="#e9e9e9"></stop><stop offset="100%" stop-color="#e9e9e9"></stop></linearGradient></defs><g></g><path fill="none" d="M-50,176 C233.75,175 273.75,175 557.5,176" style=""></path><text fill="url('#linearGradientSjir9dap94p')" dy="127.4" x="170" style="font-size: 100px; font-family: &quot;Open Sans&quot;; text-anchor: middle;">terminal</text></svg></g><g transform="matrix(1,0,0,1,135.5,0.5)"><svg width="141.15924938602825" height="43.11920099095185" viewBox="53.8049233703925,70.30000000000001,141.15924938602825,43.11920099095185"><defs><linearGradient x1="0" y1="0.5" x2="1" y2="0.5" id="linearGradientSjir9dap94u"><stop offset="0%" stop-color="#c43b3b"></stop><stop offset="100%" stop-color="#c43b3b"></stop></linearGradient></defs><g><path d="M189,106L189,106c-6.1-3.3-12-7.1-17.9-10.7c-6-3.7-12-7.3-18.3-10.6c-6.3-3.3-12.8-6.3-20.1-8.2c-0.9-0.2-1.8-0.4-2.8-0.6   l-1.4-0.3c-0.5-0.1-1-0.1-1.4-0.1c-1-0.1-1.9-0.2-2.9-0.2l-2.9,0.2c-1,0-1.9,0.2-2.8,0.4c-0.9,0.2-1.9,0.3-2.8,0.5   c-1.8,0.5-3.6,0.9-5.3,1.5c-8.5,2.9-16.2,6.9-23.8,10.9c-7.6,4.1-15,8.5-22.5,12.4c-3.5,1.9-5.8,4.4-5.2,6.1   c0.7,1.6,4.4,1.5,8.1-0.4c7.7-4,15.1-8.4,22.5-12.4c7.5-4,15-7.9,22.8-10.5c1.6-0.6,3.2-1,4.8-1.4c0.8-0.2,1.6-0.3,2.4-0.5   c0.8-0.1,1.6-0.4,2.4-0.4l2.3-0.2c0.8,0,1.6,0.1,2.3,0.1c0.4,0,0.8,0,1.2,0.1l1.2,0.2c0.8,0.1,1.6,0.2,2.4,0.4   c6.4,1.5,12.9,4.1,19.1,6.9c6.3,2.9,12.5,6.1,18.8,9.2c6.3,3.1,12.5,6.4,19.1,9C190.1,108.1,190.6,106.8,189,106z" fill="url('#linearGradientSjir9dap94u')"></path></g></svg></g><g transform="matrix(1,0,0,1,86.5,44)"><svg width="107.69999999999999" height="16.400000000000006" viewBox="5.100000000000001,113.4,107.69999999999999,16.400000000000006"><defs><linearGradient x1="0" y1="0.5" x2="1" y2="0.5" id="linearGradientSjir9dap950"><stop offset="0%" stop-color="#c43b3b"></stop><stop offset="100%" stop-color="#c43b3b"></stop></linearGradient></defs><g><path d="M102.8,118.4H68c-19,0-38.1,0.8-57,2.4c-1.2,0.1-1.2,1.5,0,1.6c18.9,1.6,38,2.4,57,2.4h34.8c2.8,0,5-1.4,5-3.2   C107.8,119.8,105.6,118.4,102.8,118.4z" fill="url('#linearGradientSjir9dap950')"></path></g></svg></g></svg>
